<svg xmlns="http://www.w3.org/2000/svg" viewBox="0 0 21 21">
  <defs>
    <linearGradient gradientUnits="userSpaceOnUse" x1="360.267" y1="180.948" x2="360.267" y2="200.46" id="gradient-0" gradientTransform="matrix(-0.999851, 0.017233, -0.018908, -1.09693, 373.994013, 213.110784)">
      <stop offset="0" style="stop-color: rgb(229, 21, 44);"></stop>
      <stop offset="1" style="stop-color: rgb(255, 178, 0);"></stop>
    </linearGradient>
  </defs>
  <path stroke-linecap="round" stroke-linejoin="round" d="M 3.215 17.468 L 3.215 17.476 L 3.223 17.476 L 3.223 17.468 L 3.215 17.468 Z M 14.098 14.093 L 16.723 16.718 M 10.108 8.512 L 8.363 9.949 M 10.108 8.512 L 5.848 4.252 L 5.848 2.843 L 2.098 0.593 L 0.598 2.093 L 2.848 5.843 L 4.257 5.843 L 8.364 9.95 M 10.109 8.513 L 10.211 8.428 C 11.044 7.742 11.206 6.554 11.115 5.478 C 11.062 4.863 11.132 4.279 11.299 3.742 C 12.066 1.29 14.881 -0.169 17.451 0.992 L 14.175 4.268 C 14.434 5.386 15.307 6.259 16.425 6.518 L 19.701 3.241 C 21.116 6.373 18.639 9.871 15.215 9.577 C 14.635 9.529 14.022 9.553 13.472 9.717 M 8.364 9.95 L 1.527 15.58 C 0.683 16.272 0.374 17.426 0.759 18.448 C 1.45 20.283 3.869 20.682 5.113 19.166 L 9.768 13.513 M 13.472 9.717 C 13.004 9.857 12.581 10.099 12.264 10.483 L 9.768 13.513 M 13.471 9.716 L 19.348 15.593 C 19.986 16.252 20.238 17.193 20.015 18.082 C 19.519 20.062 17.065 20.763 15.598 19.343 L 9.768 13.513" style="stroke-width: 1; fill: none; stroke: url(#gradient-0); paint-order: fill;"></path>
</svg>
